# xmcd
#
# Track frame offsets: 
#        150
#        13160
#        30397
#        45200
#        63010
#        76492
#        89422
#        105500
#        119127
#        137482
#        156600
#        170250
#        185075
#        197145
#        210587
#        223547
#
# Disc length: 3204 seconds
#
# Revision: 1
# Processed by: cddbd v1.4PL0 Copyright (c) Steve Scherf et al.
# Submitted via: ExactAudioCopy v0.90b4
#
DISCID=da0c8210
DTITLE=John Anderson - Country Legends
DYEAR=2002
DGENRE=Country
TTITLE0=Straight Tequila Night
TTITLE1=When It Comes To You
TTITLE2=Let Go Of The Stone
TTITLE3=Seminole Wind
TTITLE4=Money In The Bank
TTITLE5=I've Got It Made
TTITLE6=I Wish I Could Have Been There
TTITLE7=Country 'Til I Die
TTITLE8=Bend It Until It Breaks
TTITLE9=Mississippi Moon
TTITLE10=Cold Day In Hell
TTITLE11=Solid Ground
TTITLE12=I Fell In The Water
TTITLE13=Swingin'
TTITLE14=It Ain't Pneumonia, It's The Blues
TTITLE15=Keep Your Hands To Yourself
EXTD=
EXTT0=
EXTT1=
EXTT2=
EXTT3=
EXTT4=
EXTT5=
EXTT6=
EXTT7=
EXTT8=
EXTT9=
EXTT10=
EXTT11=
EXTT12=
EXTT13=
EXTT14=
EXTT15=
PLAYORDER=
